<?xml version="1.0" encoding="UTF-8"?>
<svg version="1.1" viewBox="0 0 2048 2048" width="512" height="512" xmlns="http://www.w3.org/2000/svg">
<path transform="translate(1780,184)" d="m0 0 19 1 15 4 12 5 15 10 7 6 9 11 7 11 6 14 14 46 19 63 23 76v3h19l26 1 17 4 16 8 9 6 10 9 10 12 8 16 5 13 2 8v335l-6 11-8 7-7 3-15 2-19 2-18 4-20 7-17 9-17 12-13 12-8 8-12 17-8 14-7 15-6 20-3 17v35l3 17 5 18 8 18 9 16 10 13 11 12 10 9 16 11 16 9 21 8 17 4 15 2 15 1 11 3 6 4 7 8 4 7v336l-6 19-8 16-11 14-10 9-13 8-12 5-9 3-13 2h-282l-10-4-8-7-6-12-1-6h-58l-5 14-9 10-8 4-5 1-469 1-54 16-63 19-217 65-161 48-212 63-58 17-52 15-22 6h-14l-17-4-14-6-12-8-12-11-9-11-8-15-8-24-14-47-16-53-21-70h-25l-17-1-18-4-14-6-13-9-11-10-9-12-8-15-6-19v-1028l6-19 7-14 8-11 12-12 15-10 15-6 13-3h234l10 4 7 7 5 10 1 9h60l1-9 5-10 9-8 7-3 521-1 13-2 52-16 384-116 35-10h11l9 3 10 9 5 9 9-2 40-12 7-2-1-6v-8l4-11 7-8 8-5 25-8 169-51 37-11 9-2z" fill="#FDD98E"/>
<path transform="translate(516,626)" d="m0 0h24l17 4 18 8 11 7 10 8 10 9 7 7 9 11 10 14h99l10-14 9-10 7-8 8-8 15-11 14-8 12-5 17-4h23l14 3 14 5 15 8 13 10 11 11 10 14 9 16 6 15 6 19 5 27 2 23v39h15l15 3 12 5 11 7 6 5 8 10 7 12 4 12 1 5v102l-3 13-8 16-9 11-10 8-17 9-13 3v243l-1 28-3 14-5 13-9 15-12 13-12 9-16 8-12 4-17 2-186 1-212-1-16-1-16-4-16-8-10-7-10-9-10-13-8-16-4-14-1-6-1-16v-254l-9-3-16-7-10-7-11-11-8-13-5-15-1-6v-99l4-16 6-12 7-9 10-10 13-8 12-4 12-2 14-1 1-34 2-26 3-17 5-21 7-19 8-16 10-15 12-13 12-10 15-9 16-6z" fill="#010101"/>
<path transform="translate(1780,184)" d="m0 0 19 1 15 4 12 5 15 10 7 6 9 11 7 11 6 14 14 46 19 63 23 76v3h19l26 1 17 4 16 8 9 6 10 9 10 12 8 16 5 13 2 8v335l-6 11-8 7-7 3-15 2-19 2-18 4-20 7-17 9-17 12-13 12-8 8-12 17-8 14-7 15-6 20-3 17v35l3 17 5 18 8 18 9 16 10 13 11 12 10 9 16 11 16 9 21 8 17 4 15 2 15 1 11 3 6 4 7 8 4 7v336l-6 19-8 16-11 14-10 9-13 8-12 5-9 3-13 2h-282l-10-4-8-7-6-12-1-11 4-11 8-9 8-5 4-1 278-1 10-3 8-6 6-10 1-3 1-135v-158l-10-1-26-7-21-8-23-12-15-10-14-11-13-12-7-7-9-11-9-12-10-16-8-15-9-23-5-18-4-21-2-25 1-26 4-24 5-19 7-19 10-21 10-16 13-17 11-12 14-14 14-11 15-10 18-10 19-8 24-7 17-4h3v-286l-2-10-5-8-8-7-8-3-701-1h-840l-10-2-8-4-7-7-4-8-2-9 3-12 6-9 7-6 7-3 521-1 13-2 52-16 384-116 35-10h11l9 3 10 9 5 9 9-2 40-12 7-2-1-6v-8l4-11 7-8 8-5 25-8 169-51 37-11 9-2z" fill="#010101"/>
<path transform="translate(76,435)" d="m0 0h234l10 4 7 7 5 10 2 12-5 12-7 8-8 5-7 2-225 1-8 4-5 4-7 11-1 5v1e3l1 9 5 10 7 7 6 3 5 1 1488 1 9 2 10 7 6 10 2 6v10l-4 10-9 10-8 4-5 1-469 1-54 16-63 19-217 65-161 48-212 63-58 17-52 15-22 6h-14l-17-4-14-6-12-8-12-11-9-11-8-15-8-24-14-47-16-53-21-70h-25l-17-1-18-4-14-6-13-9-11-10-9-12-8-15-6-19v-1028l6-19 7-14 8-11 12-12 15-10 15-6z" fill="#010101"/>
<path transform="translate(334,465)" d="m0 0h58l4 12 6 8 8 6 6 2 7 1h866l675 1 10 4 9 9 4 9 1 7v284l-1 2-35 9-19 7-17 8-18 11-16 12-13 12-13 13-13 17-7 10-10 18-9 20-8 26-4 21-2 24 1 27 4 25 5 19 8 21 8 16 6 11 11 16 9 11 12 13 13 12 16 12 20 12 21 10 24 8 26 6 1 2v156l-1 118-1 6h-1l-1-8-5-5-2-10-1-11-1-32-1-134-2-31v-39l-9-4-27-7-11-4-23-11-13-8-11-9-12-11-13-13-9-11-10-13-7-11-8-13-8-19-8-23-3-12-2-11-2-6-3-27v-26l3-21 6-26 6-18 7-17 7-11 3-6 8-13h2l1-4 9-12h2l2-4 3-4h2l2-5h2v-2h2l2-4 8-8 11-9 14-11 19-12 10-5 13-5 7-3 24-9 6-4v-218l-1-16v-39l-3-9-3-3v-2l-4-2-9-3h-80l-82 2-71 1h-134l-28-1-122-2-114-1h-28l-3 3 6 2 11 11 1 4 3 1v2l4 2 2 10v25l1 45-2 9-4 7h-2l-2 4-10 7-8 3-9 2h-10l-10-3-7-5v-2l-4-2v-2h-2l-4-10-3-10-3-12-1-15v-41l3-10 8-13 6-6 7-3 1-3-23-1h-38l-76 2-26 1-68 1h-54l-387-1-102-1h-38l-28 1-15-2-9-5-4-3v-2h-2l-6-10-4-9-5-3-5-1-16 1-13 2-5 6-6 12h-2v2h-2v2l-12 6-15 3h-114l-96 1-10 2-6 3-5 9-2 62-1 17v723l-1 97-1 6-3-1-1-2-1-779 1 859 2 10 7-4h9l15 2 31 1 13 1h13l25-1h53l5 1 6-2h8l7 1 7-2 7-1 7 2h32l13-1 77 1h827l16 1 4 2 3 7 3 3v3l4 1v2h3l-7-10-3-9v-73l4-9 6-7 8-5 8-2h9l11 4 6 5 6 9 2 7v70l-4 11-8 9-7 4v2h7l12-7 4-5 4-10 6-2h66l287-1h301l3 5-1 10-4 10-5 7-6 4-11 2-12 1-1-1h-227l-13-1-16 1-11 4-8 6-4 2-2 5-6 12-2 1v2l-10 2-11-1-14-1-13-1-3-6v11h-1l-3-12-5-8v-2l-4-2-6-4-9-2-1488-1-9-3-8-7-5-7-2-5-1-9v-1e3l3-9 7-9 9-6 3-1 225-1 9-3 6-4 6-7 5-12z" fill="#FCCB7F"/>
<path transform="translate(1783,244)" d="m0 0 9 1 8 4 7 6 7 14 14 46 21 70 13 43 1 6-663 1h-47l2-2 45-14 129-39 106-32 9-5 7-8 4-11v-12l25-8 31-9 3 4 4 6 6 5 9 4h14l97-29 72-22 60-18z" fill="#FBBF7D"/>
<path transform="translate(185,1613)" d="m0 0h709l-1 2-27 8-165 50-182 55-50 15-47 14-29 9-120 36-4 1h-13l-10-5-8-9-5-13-8-26-15-50-16-53-9-31z" fill="#FCBF7E"/>
<path transform="translate(710,1037)" d="m0 0h196l3 1v264l-4 9-7 8-8 5-10 2h-170l-1-1v-287z" fill="#60A1F7"/>
<path transform="translate(455,1037)" d="m0 0h192l2 1v232l-1 55-76 1h-90l-9-2-9-6-6-7-4-10-1-27v-139l1-97z" fill="#60A1F7"/>
<path transform="translate(334,465)" d="m0 0h58l4 12 6 8 8 6 6 2 7 1h866l675 1 10 4 9 9 4 9 1 7v284l-1 2-35 9-19 7-17 8-18 11-16 12-13 12-13 13-13 17-7 10-10 18-9 20-8 26-4 21-2 24 1 27 4 25 5 19 8 21 8 16 6 11 11 16 9 11 12 13 13 12 16 12 20 12 21 10 24 8 26 6 1 2v156l-1 118-1 6h-1l-1-8-5-5-2-10-1-11-1-32-1-134-2-31v-39l-9-4-27-7-11-4-23-11-13-8-11-9-12-11-13-13-9-11-10-13-7-11-8-13-8-19-8-23-3-12-2-11-2-6-3-27v-26l3-21 6-26 6-18 7-17 7-11 3-6 8-13h2l1-4 9-12h2l2-4 3-4h2l2-5h2v-2h2l2-4 8-8 11-9 14-11 19-12 10-5 13-5 7-3 24-9 6-4v-218l-1-16v-39l-3-9-3-3v-2l-4-2-9-3h-80l-82 2-71 1h-134l-28-1-122-2-114-1h-28l-3 3 6 2 11 11 1 4 3 1v2l4 2 2 10v25l1 45-2 9-4 7h-2l-2 4-10 7-8 3-9 2h-10l-10-3-7-5v-2l-4-2v-2h-2l-4-10-3-10-3-12-1-15v-41l3-10 8-13 6-6 7-3 1-3-23-1h-38l-76 2-26 1-68 1h-54l-387-1-102-1h-38l-28 1-15-2-9-5-4-3v-2h-2l-6-10-4-9-5-3-5-1-16 1-13 2-5 6-6 12h-2v2h-2v2l-12 6-15 3h-114l-96 1-10 2-6 3-5 9-2 62-1 17v723l-1 97-1 6-3-1-1-2-1-805-1-22v-80l7-11 11-8 3-1 225-1 9-3 6-4 6-7 5-12z" fill="#FEE38F"/>
<path transform="translate(1493,784)" d="m0 0h9l11 4 8 6 5 8 2 7v441l-4 10-6 8-7 5-5 2-10 1-8-2-8-4-8-8-3-7-1-5-1-51v-50l1-341 4-10 6-7 8-5z" fill="#010101"/>
<path transform="translate(737,876)" d="m0 0h218l10 1 4 4 1 2v86l-3 5-4 3-14 1-240-1v-100z" fill="#97C5FC"/>
<path transform="translate(407,876)" d="m0 0h240l2 1v99l-1 1h-248l-6-5-1-2v-86l3-5 2-2z" fill="#97C5FC"/>
<path transform="translate(185,1613)" d="m0 0h709l-1 2-10 2h-11l-4 1-6 2-3 3-22 7-25 7-13 4-7 1-6 3-9 2-9 3-9 1-26 4-30 2h-22l-24-1-46-1h-87l-69 1h-119l-37-1h-39l-56-1-6-3-5-13-2-7-2-1-4-14z" fill="#FAB068"/>
<path transform="translate(1325,391)" d="m0 0h15l25 2h19l12 1h236l16-1 64 1h36l59-1 19 1h18l1 3h2l3 4 2 10 5 10 3 1 3 9v3l-663 1h-47l2-2 45-14 80-24 17-1 12-1 5-1z" fill="#FAB068"/>
<path transform="translate(520,619)" d="m0 0h11l17 3 15 4 21 8 15 9 10 8v2h2v2l4 2 2 4h2l4 5 3 5 6 7v2l3 1 7 12v1l-10 1-12-16-12-14-9-9-16-12-14-8-12-5-17-4h-24l-17 4-15 6-14 9-11 9-7 7-9 12-10 17-8 20-5 17-4 19-2 18-1 16-1 34-1 1-21 2-12 3-12 6-9 7-9 9-8 13-4 11-2 10v99l4 16 6 12 7 9 9 9 16 9 16 5 2 2v254l1 16 4 17 6 14 9 13 10 11 14 10 15 7 16 4 16 1 215 1 183-1 17-2 15-5 13-7 12-9 7-7 9-13 8-16 3-11 1-7 1-28 1-243 15-5 15-8 10-8 9-12 7-14 3-13v-102l-3-11-4-10-8-12-5-6-12-9-13-6-12-3-21-2-1-39-2-23-5-27-9-27-8-16-10-16-12-13-9-8-13-8-15-7-14-4-7-1h-23l-17 4-12 5-11 6-14 10-12 11-12 13-14 19-10-1 3-7h2v-2h2l1-3h2l2-4 8-11 6-7 8-7 11-10 10-7 14-7 11-4 9-3h7v-2l14-1h9l16 3 15 4 18 7 8 4v2l4 1 6 4 6 5 9 11 10 15 3 10h2l7 14 5 15 5 19 3 15 2 17v30l-1 8h2l3 5 9 3 10 2 10 3 16 8 10 8 7 9 8 16 3 11 3 17v13l-1 14 1 15v56l-3 15-7 14-3 4h-2l-1 4-8 7-10 7-14 7h-4l-1 3h-2v2h-2l-1 4v38l-1 1-1 71v54l-1 96-3 21-6 15-8 11-2 3h-2l-2 4-9 8-10 6-3 3-14 7-15 5-18 2-42 1-111 2h-252l-25-3-13-4-11-6-11-8-10-9-5-6v-2h-2l-9-16-6-15-6-24-1-10-2-70v-95l-1-30-1-8v-44l-4-4-10-5-10-7-12-11-9-14-6-14-4-15-1-8v-65l1-26 4-18 8-16 8-10 11-11 7-4 6-4 11-4 21-7 3-6v-14l2-28 5-25 5-20 6-15 5-10 11-18 9-11h2l2-4 4-4h2l2-4h2l1-3 6-4h2v-2l11-6 11-5 8-2 15-4h6z" fill="#FEE28F"/>
<path transform="translate(1635,885)" d="m0 0h13l9 3 10 9 4 8 1 3 1 237-3 12-7 10-9 6-6 2h-10l-10-3-9-7-4-6-2-5-1-6v-238l4-11 7-8 7-4z" fill="#010101"/>
<path transform="translate(519,686)" d="m0 0h12l12 5 14 9 12 11 8 9 6 9 2 12v74l-65 1h-45l-3-1 1-37 2-19 4-20 7-21 8-13 9-10 14-8z" fill="#F44F54"/>
<path transform="translate(828,687)" d="m0 0h14l10 4 9 6 8 8 9 16 6 18 4 20 2 20 1 19v17l-55 1h-56l-1-1-1-50v-32l7-11 10-13 11-11 11-7z" fill="#F44F54"/>
<path transform="translate(967,880)" d="m0 0 3 3v86l-3 5-4 3-14 1-240-1v-13l3-1 2 1v-9l2-1 2-8v-9l5-1 204-1 41 1v-52z" fill="#7BB2F9"/>
<path transform="translate(393,884)" d="m0 0h1l1 49 2 15-1 2 3 1-2 1-1 4h2l1-4 1-5 1-6h2v-4l3-1 184-1h50l2 1 1 10v30h5v1h-248l-6-5-1-2z" fill="#7AB2F9"/>
<path transform="translate(1502,775)" d="m0 0 14 5v2l4 1 7 7 6 9 3 9 2 12v37l-1 47-1 50-1 12v12h-2l-1-33-1-42-2-16-1-76-5-13-5-6-12-6-4-1h-9l-11 4-7 6-5 9-1 4-1 341v50l1 51 3 10 7 8 6 4 5 2 8 1 10-2 8-4 6-7 4-8 1-4h2l1-13 2-19 2 1v3h2l2 9v22l-3 11-5 8h-2v2h-2v2l-6 4h-4v2l-10 4-5 1h-8l-10-3-6-4-10-9-6-10-3-11-1-18-1-138v-118l1-123 2-43 4-12 5-8 5-4 9-6 10-4z" fill="#FEE38F"/>
<path transform="translate(908,1041)" d="m0 0h1v261l-4 9-7 8-8 5-10 2h-170v-1l13-1 119-1 3-2h2l1-2h-12l-2-1-46-1h-7l-7 1h-23l-14 2-4-2h-3l-1 2-9-4-2-5v-5l1-1v-13h2l1-5h2v-2l18-1 153-2 8-1 3 5 1-9z" fill="#4988DA"/>
<path transform="translate(260,1544)" d="m0 0h151l135 1h185l105 1h253l78 1 49 2 40 1v2h-1031l-43-1-1-1-21-2 3-2 4-1 5 1 7-1h52z" fill="#FEDA8F"/>
<path transform="translate(1276,1414)" d="m0 0h9l11 4 6 5 6 9 2 7v70l-4 11-8 9-10 5h-15l-10-4-7-6-5-9-1-5v-73l4-9 6-7 8-5z" fill="#010101"/>
<path transform="translate(1273,1234)" d="m0 0h14l12 6 7 8 4 11v70l-3 9-7 9-10 6-4 1h-10l-10-3-8-6-6-9-2-6v-73l4-9 7-8 9-5z" fill="#010101"/>
<path transform="translate(1276,512)" d="m0 0 11 1 8 3 10 9 5 12v70l-4 11-7 8-8 5-7 2h-7l-10-3-9-6-6-9-2-7v-72l4-10 9-9 8-4z" fill="#010101"/>
<path transform="translate(1274,693)" d="m0 0h12l10 4 8 7 5 10 1 3v70l-3 9-6 9-9 6-7 2h-9l-10-3-8-6-6-9-2-6v-73l4-9 7-8 6-4z" fill="#010101"/>
<path transform="translate(1276,873)" d="m0 0 13 1 8 4 5 4 6 9 2 7v70l-4 11-7 8-12 6h-13l-9-3-10-9-4-8-1-4v-72l4-10 7-8 10-5z" fill="#010101"/>
<path transform="translate(1272,1054)" d="m0 0h16l10 5 7 7 4 8 1 5v69l-4 11-9 10-8 4-10 1-10-2-10-6-6-8-3-8v-73l4-9 7-8 8-5z" fill="#010101"/>
<path transform="translate(468,1283)" d="m0 0h149l21 1 2 2v24l-3 6-6 1h-79l-23 1-8-1-1 2-23 1-6-2-2 1-7-2-8-4-4-6-4-10v-10z" fill="#4988DA"/>
<path transform="translate(1783,244)" d="m0 0 9 1 8 4 7 6 7 14 14 46 21 70 2 6v4l-6-2-5-5-5-13-6-21-10-32-10-31-6-20-5-10-1-3h-2v-2l-6-2-2-1h-8l-13 3-18 7-26 8-40 12-28 8-13 4-9 3-12 3-19 6-29 9-24 8-12 1-9-2-9-6-7-7v-2l-6-2-11 1-15 5-11 6-4 14-4 10-4 6-8 6-12 4-27 6-15 4-11 3-4 2-12 3-13 3-11 3-8 3h-8l-5 1-2-2 2-2 47-14 56-17 12-4 8-5 6-7 4-11v-12l25-8 31-9 3 4 4 6 6 5 9 4h14l97-29 72-22 60-18z" fill="#FCCB7F"/>
<path transform="translate(1638,876)" d="m0 0h7l7 2 9 3 12 12 6 10 2 12v20l-1 6-4-1-3-27-4-11-6-8-8-6-7-2h-13l-9 4-7 6-5 10-1 4v238l2 8 4 8 9 7 10 3h10l10-4 6-5 5-8 2-6h2v-5l3-1v-9l2-4v3h4v18l-4 11-8 10-4 2v2l-10 4-6 3-5 1h-10l-11-4-11-9-5-6-6-15-1-13-1-87v-58l1-52 2-31 3-9 6-12 11-8z" fill="#FEE28E"/>
<path transform="translate(198,1655)" d="m0 0 4 1 2 4 2 1 8 21 6 20 7 25 4 13 2 10 5 17 3 9 4 9v3h2l1 4 3 1v2l9 2h7l21-6 11-4 9-2 9-3 20-6 7-2 11-3 21-6 9-3 10-3 21-6 9-3 10-3 14-4 7-3 12-3 3-2 10-2 8-3 13-4 14-4 17-5 8-3 7-2 5-2 7-1 7-3 21-6 9-3 11-4 32-10 15-5 10-2 8-3 5-1 3-2 12-3 5-2 15-4 7-1 6-2 17-2 5 1-1 2-56 17-119 36-53 16-50 15-47 14-29 9-120 36-4 1h-13l-10-5-8-9-5-13-8-26-27-90z" fill="#FCCD80"/>
<path transform="translate(646,757)" d="m0 0h71v58h-71z" fill="#F34F53"/>
<path transform="translate(1276,685)" d="m0 0 9 1 10 2 6 4 4 4 1 7-1-2h-5l-10-6-4-1h-12l-9 3-9 8-4 8-1 3v73l4 10 6 7 10 5 5 1h9l9-3 7-5 6-9 3-9 2-13 1-2 4 2 1 21-4 10h-2l-1 4-11 8-16 5h-14l-8-3v-2l-4-1-2-4-3-1-3-3-3-7v-12l-3-2-2-6-2-23 1-35 3-11 6-10h2v-2l5-5 7-5z" fill="#FEE08D"/>
<path transform="translate(1279,1406)" d="m0 0h7l10 3 6 4 9 12 6 12 2 16v45l-2 9-4 5-4 3v-76l-3-9-6-8-8-5-7-2h-9l-10 3-9 7-5 9-2 5-2 64-3 1-3-3-2-12v-29l1-18 3-11 4-8 4-2v-2l8-7 12-5z" fill="#FEE38F"/>
<path transform="translate(1272,1227)" d="m0 0h16l8 3 6 4 2 2v5l-7-1-10-5h-14l-9 4-8 7-4 8-2 5-1 23-1 44-1 2-4-2-2-11-1-14v-20l1-19 3-10 5-9 5-5 7-6z" fill="#FEE490"/>
<path transform="translate(1274,1046)" d="m0 0 16 1 12 6 3 4 1 6-6-3v-2l-9-2-3-1h-16l-10 5-8 9-4 9-1 24-1 44-2 1-3-2-2-11-1-22 1-27 3-13 5-9 11-11z" fill="#FEE490"/>
<path transform="translate(1273,866)" d="m0 0h11l10 2 9 6 2 3v4l-10-3-6-3-13-1-10 3-8 6-6 10-2 5-1 17-1 47-2 3-3-2-2-10-1-23 1-23 2-13 3-6h2l1-5h2v-3l5-5 8-6z" fill="#FEE490"/>
<path transform="translate(1314,1310)" d="m0 0 3 1 1 5-1 6h2v10l-4 12-10 10-8 4-13 5h-10l-10-3-9-7-5-5-4-9v-7l3-3 2 1 4 10 6 7 10 5 5 1h10l10-4 5-4 6-9 3-8 2-15z" fill="#FEE38F"/>
<path transform="translate(1427,1547)" d="m0 0h91v2l5-1 15-1 4 1 16-1h8l9 2 9 5 3 3-5-1-12-3-201-1-5-1v-1l42-1v-1z" fill="#FDD98E"/>
<path transform="translate(1313,1131)" d="m0 0 4 2 1 5v17l-5 10-4 5h-2v2l-8 5-6 2h-5v2l-3 1h-14l-9-4-8-6v-2h-2l-5-9-1-6 3-5h2l4 10 5 6 12 6 11 1 8-2 8-5 6-7 5-12 2-14z" fill="#FEE38F"/>
<path transform="translate(1313,951)" d="m0 0 4 2 1 12v10l-5 10-4 5-10 7-12 3-6 2h-8l-11-4-10-9-5-9 1-9 4 2 4 8 9 8 9 3h13l12-6 6-7 5-13 1-12z" fill="#FEE38F"/>
<path transform="translate(1313,771)" d="m0 0 4 2 1 21-4 10h-2l-1 4-11 8-16 5h-14l-8-3v-2l-4-1-2-4-3-1-3-3-3-7v-8l1-5h2l5 12 6 7 10 5 5 1h9l9-3 7-5 6-9 3-9 2-13z" fill="#FEE38F"/>
<path transform="translate(1672,909)" d="m0 0h1l1 12 1 64 1 39v84l-2 38-1 5h-1z" fill="#FAB068"/>
<path transform="translate(396,963)" d="m0 0h2l2 5h2l3 3 4 2 16-1 9 2 4-1 9 1h19l6-2v2h102l24 1v1h-200l-3-3v-8z" fill="#99C6FD"/>
<path transform="translate(710,967)" d="m0 0 2 2 2-2-1 4-1 2h3v2l7-1 50-1 14-1 2-1 10 2 28 1 38 1v1h-154z" fill="#99C6FD"/>
<path transform="translate(1204,494)" d="m0 0h85v1l-12 1h-15v2l-4 3h-7l-5-1-2-3-103-1v-1z" fill="#FCCC82"/>
<path transform="translate(872,1616)" d="m0 0h11l-1 2-59 18-50 15-5-1 4-2 10-3 9-3 1-1 10-2 28-8 24-7 7-2 1-3 9-2z" fill="#FBC278"/>
<path transform="translate(65,1522)" d="m0 0 2 2 3 9 5 8 8 5 9 3 5 1-2 2h-15l-8-5-8-9-1-2v-8z" fill="#FDD68B"/>
<path transform="translate(1311,711)" d="m0 0 5 3 1 2 1 14v10l-3 11h-1l-2-8-2-25-1-1v-5z" fill="#FEE691"/>
<path transform="translate(1308,890)" d="m0 0h2v3l5 2 2 4v25l-2 6h-1l-3-15v-17h-2z" fill="#FEE590"/>
<path transform="translate(1309,1073)" d="m0 0 7 3 1 6v22l-3 4-2-6-2-22-1-1z" fill="#FEE590"/>
<path transform="translate(396,963)" d="m0 0h2l2 5h2l3 3 4 2 16-1 6 2 1 2h-34l-3-3v-8z" fill="#97C4FC"/>
<path transform="translate(1312,1255)" d="m0 0 4 1 1 6v21l-3 4-2-6-2-25z" fill="#FEE691"/>
<path transform="translate(705,782)" d="m0 0h2l2 6v7l-1 9-7-4-4-6v-3h2v-2h2l-1-3z" fill="#020101"/>
<path transform="translate(1600,1572)" d="m0 0 3 3 1 4h20l17 2 11 1v1h-51z" fill="#FEDA8F"/>
<path transform="translate(906,1293)" d="m0 0h1l1 5v7l-5 9-7 7-6 1 1-4 4-2h3l1-6 6-13z" fill="#5E9EF4"/>
<path transform="translate(1529,887)" d="m0 0h1l2 18 1 50-2 1-1-31-1-1z" fill="#FDD48A"/>
<path transform="translate(805,1638)" d="m0 0h5l-1 2-36 11-5-1 4-2 10-3 9-3 1-1 10-2z" fill="#FCC77E"/>
<path transform="translate(1307,1549)" d="m0 0 47 1v1l-25 1h-29l-5-1v-1z" fill="#FDD98E"/>
<path transform="translate(1984,1531)" d="m0 0h2l-2 6-6 8-9 6v-3l5-4 2-4 4-4z" fill="#FDDB89"/>
<path transform="translate(203,1672)" d="m0 0h2l3 11 4 13 2 8v3h-2l-9-30z" fill="#FCCE84"/>
<path transform="translate(1181,425)" d="m0 0h5l-2 2-4 1 1 2-7 1v2h-12l3-3z" fill="#FDD084"/>
<path transform="translate(872,1616)" d="m0 0h11l-1 2-13 4h-8l1-3 9-2z" fill="#FCC67E"/>
<path transform="translate(1601,1578)" d="m0 0 1 2h2v2l39-1 9 1v1h-51z" fill="#FEE691"/>
<path transform="translate(190,1628)" d="m0 0 2 3 4 13 2 4-1 6-2-4-5-17z" fill="#FBBE77"/>
<path transform="translate(1511,295)" d="m0 0 3 4v4l-10-3v-3z" fill="#FDD78B"/>
<path transform="translate(1452,336)" d="m0 0 2 1-2 3h-2l-1 4-6 3-1 1h-5l4-3z" fill="#FDCF85"/>
<path transform="translate(589,1704)" d="m0 0 2 1-9 4-7 2h-5l2-2z" fill="#FDD185"/>
<path transform="translate(1660,1571)" d="m0 0 1 4-2 8h-7l1-2h3l2-7z" fill="#FEE08D"/>
<path transform="translate(1464,309)" d="m0 0 2 1-5 5-3 1v2h-2l-1-6z" fill="#FDD98D"/>
<path transform="translate(1514,301)" d="m0 0 5 5 5 6-2 1-8-7z" fill="#FCCE83"/>
<path transform="translate(677,1677)" d="m0 0h2l-1 3-10 3h-6l2-2z" fill="#FDD387"/>
<path transform="translate(1590,1558)" d="m0 0 4 2 1 4 3 3-1 4-5-7v-2l-3-1z" fill="#FDD386"/>
<path transform="translate(777,1646)" d="m0 0 6 1-3 2-9 2-3-2z" fill="#FCC37A"/>
<path transform="translate(333,1781)" d="m0 0 4 1-7 3-8 1 1-2z" fill="#FCCE84"/>
<path transform="translate(373,1769)" d="m0 0 4 1-7 3-8 1 1-2z" fill="#FDCF84"/>
<path transform="translate(968,967)" d="m0 0h1v5l-4 4h-3l2-5z" fill="#8BBCF8"/>
<path transform="translate(1329,380)" d="m0 0 3 1-4 2-2 3h-5v-3z" fill="#FCC67C"/>
<path transform="translate(1676,1132)" d="m0 0 1 4-1 9h-2v-12z" fill="#FDD088"/>
<path transform="translate(1161,431)" d="m0 0 3 1 4 2-7 1h-8l2-2z" fill="#FBBB74"/>
<path transform="translate(733,1660)" d="m0 0 3 1-2 2-7 2h-5l4-3z" fill="#FDD587"/>
<path transform="translate(1181,425)" d="m0 0h5l-2 2-4 1 1 2-7 1v-3l4-2z" fill="#FCC57C"/>
<path transform="translate(1836,348)" d="m0 0h2l2 7v6l-2-2-2-5z" fill="#FCCE83"/>
</svg>
