<?xml version="1.0" standalone="no"?>
<!DOCTYPE svg PUBLIC "-//W3C//DTD SVG 20010904//EN"
 "http://www.w3.org/TR/2001/REC-SVG-20010904/DTD/svg10.dtd">
<svg version="1.0" xmlns="http://www.w3.org/2000/svg"
 width="512.000000pt" height="512.000000pt" viewBox="0 0 512.000000 512.000000"
 preserveAspectRatio="xMidYMid meet">
<metadata>
Created by potrace 1.16, written by Peter Selinger 2001-2019
</metadata>
<g transform="translate(0.000000,512.000000) scale(0.100000,-0.100000)"
fill="#000000" stroke="none">
<path d="M1789 5100 c-635 -101 -1177 -466 -1495 -1007 -390 -662 -378 -1522
29 -2180 206 -332 517 -613 862 -778 569 -272 1256 -273 1830 -1 76 36 193
102 292 166 22 14 27 11 116 -78 l92 -92 233 233 233 233 -88 94 -89 94 62 94
c396 597 444 1416 120 2077 -304 622 -882 1042 -1576 1146 -168 25 -458 24
-621 -1z m559 -446 c233 -37 427 -108 617 -227 378 -235 644 -603 744 -1032
65 -277 52 -589 -35 -868 -119 -374 -392 -717 -736 -920 -608 -359 -1379 -288
-1910 177 -366 320 -567 759 -568 1239 0 313 80 599 239 857 231 372 600 644
1007 744 191 47 460 60 642 30z"/>
<path d="M1918 3905 c-90 -18 -95 -23 -59 -49 93 -69 135 -200 100 -316 -20
-66 -78 -131 -149 -168 -59 -31 -71 -33 -135 -30 -78 4 -138 29 -194 81 -35
34 -81 118 -81 151 0 28 -62 -61 -109 -159 -59 -121 -82 -211 -88 -353 -13
-283 75 -511 269 -698 175 -170 387 -254 641 -254 234 0 444 83 615 244 187
177 277 370 289 616 13 271 -83 508 -284 701 -104 101 -238 177 -385 220 -95
27 -330 35 -430 14z m218 -494 c23 -10 54 -36 70 -57 25 -32 29 -47 29 -99 0
-52 -4 -67 -29 -99 -38 -51 -105 -80 -160 -72 -120 20 -184 150 -125 256 46
81 131 109 215 71z"/>
</g>
</svg>
